<svg width="44" height="43" viewBox="0 0 44 43" fill="none" xmlns="http://www.w3.org/2000/svg">
<path d="M27.2694 1.12169L23.0486 -0.00927734L19.4917 13.2654L16.2804 1.28093L12.0595 2.4119L15.5291 15.3602L6.88724 6.71841L3.79738 9.80827L13.2764 19.2874L1.47179 16.1243L0.34082 20.3451L13.2388 23.8011C13.0912 23.1642 13.0131 22.5006 13.0131 21.8187C13.0131 16.992 16.9258 13.0792 21.7525 13.0792C26.5792 13.0792 30.492 16.992 30.492 21.8187C30.492 22.4962 30.4148 23.1557 30.269 23.7889L41.9909 26.9297L43.1218 22.709L30.1725 19.2392L41.9779 16.0759L40.8469 11.8551L27.8981 15.3247L36.54 6.68293L33.4501 3.59307L24.1026 12.9406L27.2694 1.12169Z" fill="#FF4405"/>
<path d="M30.2567 23.838C29.8948 25.368 29.1308 26.7424 28.0825 27.8435L36.5745 36.3357L39.6644 33.2458L30.2567 23.838Z" fill="#FF4405"/>
<path d="M27.9968 27.9323C26.9359 29.0159 25.5951 29.8245 24.0916 30.2413L27.1817 41.7735L31.4025 40.6425L27.9968 27.9323Z" fill="#FF4405"/>
<path d="M23.934 30.2835C23.2364 30.4628 22.5053 30.5581 21.7518 30.5581C20.9446 30.5581 20.1629 30.4486 19.4208 30.2437L16.3279 41.7866L20.5487 42.9175L23.934 30.2835Z" fill="#FF4405"/>
<path d="M19.2715 30.2012C17.791 29.7638 16.4741 28.9448 15.4348 27.8581L6.92192 36.3711L10.0118 39.4609L19.2715 30.2012Z" fill="#FF4405"/>
<path d="M15.3647 27.7829C14.3432 26.6893 13.5992 25.3333 13.2451 23.827L1.48486 26.9781L2.61582 31.1989L15.3647 27.7829Z" fill="#FF4405"/>
</svg>
