<!-- <svg width="44" height="43" viewBox="0 0 44 43" fill='none' xmlns="http://www.w3.org/2000/svg">
<g fill="#FF4405" stroke-linecap="round" stroke-linejoin="round">
<path d="M27.2694 1.12169L23.0486 -0.00927734L19.4917 13.2654L16.2804 1.28093L12.0595 2.4119L15.5291 15.3602L6.88724 6.71841L3.79738 9.80827L13.2764 19.2874L1.47179 16.1243L0.34082 20.3451L13.2388 23.8011C13.0912 23.1642 13.0131 22.5006 13.0131 21.8187C13.0131 16.992 16.9258 13.0792 21.7525 13.0792C26.5792 13.0792 30.492 16.992 30.492 21.8187C30.492 22.4962 30.4148 23.1557 30.269 23.7889L41.9909 26.9297L43.1218 22.709L30.1725 19.2392L41.9779 16.0759L40.8469 11.8551L27.8981 15.3247L36.54 6.68293L33.4501 3.59307L24.1026 12.9406L27.2694 1.12169Z"/>
<path d="M30.2567 23.838C29.8948 25.368 29.1308 26.7424 28.0825 27.8435L36.5745 36.3357L39.6644 33.2458L30.2567 23.838Z" />
<path d="M27.9968 27.9323C26.9359 29.0159 25.5951 29.8245 24.0916 30.2413L27.1817 41.7735L31.4025 40.6425L27.9968 27.9323Z"/>
<path d="M23.934 30.2835C23.2364 30.4628 22.5053 30.5581 21.7518 30.5581C20.9446 30.5581 20.1629 30.4486 19.4208 30.2437L16.3279 41.7866L20.5487 42.9175L23.934 30.2835Z"/>
<path d="M19.2715 30.2012C17.791 29.7638 16.4741 28.9448 15.4348 27.8581L6.92192 36.3711L10.0118 39.4609L19.2715 30.2012Z" />
<path d="M15.3647 27.7829C14.3432 26.6893 13.5992 25.3333 13.2451 23.827L1.48486 26.9781L2.61582 31.1989L15.3647 27.7829Z"/>
</g>
</svg> -->

<svg width="28" height="28" viewBox="0 0 28 28" fill="none" xmlns="http://www.w3.org/2000/svg">
<g id="image-user-check">
<path id="Icon" d="M18.6668 5.83337L21.0002 8.16671L25.6668 3.50004M25.6668 14V20.0667C25.6668 22.0269 25.6668 23.007 25.2854 23.7557C24.9498 24.4142 24.4144 24.9497 23.7558 25.2852C23.0071 25.6667 22.027 25.6667 20.0668 25.6667H7.9335C5.97331 25.6667 4.99322 25.6667 4.24453 25.2852C3.58596 24.9497 3.05053 24.4142 2.71497 23.7557C2.3335 23.007 2.3335 22.0269 2.3335 20.0667V7.93337C2.3335 5.97319 2.3335 4.9931 2.71497 4.24441C3.05053 3.58584 3.58596 3.05041 4.24453 2.71485C4.99322 2.33337 5.97331 2.33337 7.9335 2.33337H14.0002M2.50326 23.2474C3.05059 21.2784 4.85649 19.8334 6.99989 19.8334H15.1666C16.2508 19.8334 16.7929 19.8334 17.2436 19.923C19.0949 20.2913 20.542 21.7384 20.9102 23.5896C20.9999 24.0404 20.9999 24.5825 20.9999 25.6667M16.3335 11.0834C16.3335 13.6607 14.2442 15.75 11.6668 15.75C9.0895 15.75 7.00016 13.6607 7.00016 11.0834C7.00016 8.50604 9.0895 6.41671 11.6668 6.41671C14.2442 6.41671 16.3335 8.50604 16.3335 11.0834Z" stroke="#344054" stroke-width="2" stroke-linecap="round" stroke-linejoin="round"/>
</g>
</svg>
